<svg width="28" height="28" viewBox="0 0 28 28" fill="none" xmlns="http://www.w3.org/2000/svg">
<path d="M16.9102 16.7323C15.9956 17.4697 14.8562 17.8718 13.6814 17.8718C12.5066 17.8718 11.3672 17.4697 10.4526 16.7323C10.1732 16.5001 9.81299 16.3884 9.45121 16.4217C9.08944 16.4551 8.75574 16.6308 8.52351 16.9102C8.29129 17.1896 8.17956 17.5498 8.21292 17.9116C8.24627 18.2733 8.42197 18.607 8.70137 18.8393C10.0987 20.0058 11.8612 20.6447 13.6814 20.6447C15.5016 20.6447 17.2641 20.0058 18.6614 18.8393C18.9408 18.607 19.1165 18.2733 19.1499 17.9116C19.1832 17.5498 19.0715 17.1896 18.8393 16.9102C18.7243 16.7719 18.5832 16.6575 18.424 16.5737C18.2648 16.4899 18.0907 16.4383 17.9116 16.4217C17.5498 16.3884 17.1896 16.5001 16.9102 16.7323ZM9.57698 12.3133C9.84757 12.3133 10.1121 12.233 10.3371 12.0827C10.5621 11.9323 10.7374 11.7187 10.841 11.4687C10.9445 11.2187 10.9716 10.9436 10.9188 10.6782C10.866 10.4128 10.7357 10.169 10.5444 9.97769C10.3531 9.78635 10.1093 9.65605 9.84389 9.60326C9.5785 9.55047 9.30341 9.57756 9.05341 9.68112C8.80342 9.78467 8.58975 9.96002 8.43941 10.185C8.28908 10.41 8.20884 10.6745 8.20884 10.9451C8.20884 11.308 8.35298 11.656 8.60956 11.9125C8.86613 12.1691 9.21413 12.3133 9.57698 12.3133ZM17.7858 9.57697C17.5152 9.57697 17.2507 9.65721 17.0257 9.80755C16.8007 9.95788 16.6254 10.1716 16.5218 10.4215C16.4183 10.6715 16.3912 10.9466 16.444 11.212C16.4968 11.4774 16.6271 11.7212 16.8184 11.9125C17.0097 12.1039 17.2535 12.2342 17.5189 12.287C17.7843 12.3398 18.0594 12.3127 18.3094 12.2091C18.5594 12.1056 18.773 11.9302 18.9234 11.7052C19.0737 11.4802 19.154 11.2157 19.154 10.9451C19.154 10.5823 19.0098 10.2343 18.7532 9.97769C18.4967 9.72112 18.1487 9.57697 17.7858 9.57697ZM13.6814 0C10.9755 0 8.33032 0.8024 6.08042 2.30573C3.83053 3.80906 2.07695 5.9458 1.04144 8.44575C0.00592789 10.9457 -0.265009 13.6966 0.26289 16.3505C0.79079 19.0044 2.09382 21.4422 4.00719 23.3556C5.92057 25.269 8.35836 26.572 11.0123 27.0999C13.6662 27.6278 16.4171 27.3569 18.917 26.3213C21.417 25.2858 23.5537 23.5323 25.0571 21.2824C26.5604 19.0325 27.3628 16.3873 27.3628 13.6814C27.3628 11.8847 27.0089 10.1057 26.3214 8.44575C25.6338 6.78585 24.626 5.27762 23.3556 4.00719C22.0852 2.73675 20.5769 1.72899 18.917 1.04143C17.2571 0.35388 15.4781 0 13.6814 0ZM13.6814 24.6265C11.5167 24.6265 9.40053 23.9846 7.60062 22.7819C5.8007 21.5793 4.39784 19.8699 3.56943 17.8699C2.74102 15.8699 2.52427 13.6692 2.94659 11.5461C3.36891 9.42296 4.41133 7.47273 5.94203 5.94203C7.47273 4.41133 9.42297 3.36891 11.5461 2.94659C13.6693 2.52427 15.87 2.74102 17.8699 3.56943C19.8699 4.39783 21.5793 5.8007 22.7819 7.60061C23.9846 9.40053 24.6265 11.5167 24.6265 13.6814C24.6265 16.5842 23.4734 19.3681 21.4208 21.4208C19.3682 23.4734 16.5842 24.6265 13.6814 24.6265Z" fill="#3578FF"/>
</svg>
