<svg width="27" height="27" viewBox="0 0 27 27" fill="none" xmlns="http://www.w3.org/2000/svg">
<path fill-rule="evenodd" clip-rule="evenodd" d="M22.5525 3.94229C21.621 3.0111 20.3578 2.48799 19.0407 2.48799C17.7236 2.48799 16.4604 3.0111 15.529 3.94229L3.93898 15.5323C3.03396 16.4689 2.533 17.7235 2.54401 19.0258C2.55502 20.3282 3.07711 21.5741 3.99784 22.4953C4.91857 23.4165 6.16427 23.9392 7.46663 23.9508C8.769 23.9624 10.0238 23.462 10.9609 22.5575H10.9625L11.7854 21.7296C12.0188 21.5025 12.3321 21.3762 12.6578 21.3779C12.9835 21.3796 13.2954 21.5092 13.5265 21.7387C13.7575 21.9682 13.8891 22.2793 13.893 22.605C13.8969 22.9306 13.7726 23.2448 13.5471 23.4797L12.7225 24.3092L12.7192 24.3125C11.3219 25.7098 9.4268 26.4948 7.45074 26.4948C5.47468 26.4948 3.57956 25.7098 2.18227 24.3125C0.784987 22.9152 0 21.0201 0 19.044C0 17.068 0.784987 15.1728 2.18227 13.7756L13.7722 2.18559C15.1687 0.787422 17.0633 0.0012435 19.0393 1.47386e-06C21.0154 -0.00124055 22.911 0.782555 24.3092 2.17896C25.7074 3.57537 26.4935 5.47 26.4948 7.44606C26.496 9.42212 25.7122 11.3177 24.3158 12.7159L18.5953 18.5986C18.1959 19.0199 17.7162 19.3568 17.1844 19.5896C16.6527 19.8224 16.0797 19.9463 15.4993 19.954C14.9188 19.9617 14.3427 19.8531 13.805 19.6345C13.2672 19.4159 12.7787 19.0918 12.3682 18.6814C11.9578 18.2709 11.6337 17.7824 11.4151 17.2447C11.1966 16.7069 11.0879 16.1308 11.0956 15.5504C11.1034 14.97 11.2273 14.397 11.46 13.8652C11.6928 13.3334 12.0298 12.8537 12.451 12.4543L18.1632 6.74045C18.2777 6.62179 18.4147 6.52712 18.5661 6.46197C18.7176 6.39682 18.8805 6.36249 19.0454 6.36098C19.2103 6.35947 19.3738 6.39081 19.5265 6.45318C19.6791 6.51554 19.8178 6.60769 19.9345 6.72422C20.0511 6.84076 20.1434 6.97937 20.2059 7.13195C20.2684 7.28453 20.2999 7.44803 20.2985 7.61291C20.2972 7.7778 20.263 7.94076 20.198 8.09229C20.133 8.24382 20.0384 8.38089 19.9199 8.4955L14.2077 14.2094C14.0343 14.3819 13.8966 14.5869 13.8024 14.8126C13.7082 15.0384 13.6594 15.2805 13.6588 15.5251C13.6582 15.7697 13.7058 16.0121 13.7988 16.2383C13.8919 16.4645 14.0285 16.6702 14.2011 16.8436C14.3736 17.017 14.5786 17.1547 14.8044 17.2489C15.0301 17.3431 15.2722 17.3919 15.5168 17.3925C15.7614 17.3931 16.0038 17.3455 16.23 17.2525C16.4562 17.1594 16.6619 17.0227 16.8353 16.8502L22.5541 10.9675C23.4853 10.036 24.0084 8.77282 24.0084 7.45571C24.0084 6.13861 23.4853 4.87543 22.5541 3.94395L22.5525 3.94229Z" fill="#3578FF"/>
</svg>
