<svg width="30" height="28" viewBox="0 0 30 28" fill="none" xmlns="http://www.w3.org/2000/svg">
<path d="M28.6192 12.3561L2.6736 0.146474C2.41236 0.0228761 2.12138 -0.0239312 1.83456 0.0115079C1.54774 0.046947 1.2769 0.163173 1.0536 0.34664C0.83031 0.530106 0.663756 0.773257 0.573355 1.04775C0.482955 1.32225 0.47243 1.61679 0.543008 1.89704L3.50233 13.7374L0.543008 25.5777C0.47177 25.858 0.481834 26.1529 0.572024 26.4277C0.662215 26.7026 0.828802 26.946 1.0523 27.1297C1.2758 27.3133 1.54696 27.4295 1.83408 27.4647C2.12119 27.4998 2.41239 27.4525 2.6736 27.3283L28.6192 15.1186C28.8813 14.9953 29.103 14.8 29.2583 14.5554C29.4136 14.3108 29.4961 14.0271 29.4961 13.7374C29.4961 13.4476 29.4136 13.1639 29.2583 12.9193C29.103 12.6747 28.8813 12.4794 28.6192 12.3561ZM4.28375 23.1953L5.56424 18.0718L14.2331 13.7374L5.56424 9.40293L4.28375 4.27945L24.3839 13.7374L4.28375 23.1953Z" fill="#3578FF"/>
</svg>
