<svg width="35" height="33" viewBox="0 0 35 33" fill="none" xmlns="http://www.w3.org/2000/svg">
<path d="M17.1784 30.875H32.3569M22.2379 5.57759L27.2974 10.6371M24.7677 3.04785C25.4386 2.37692 26.3486 2 27.2974 2C27.7672 2 28.2324 2.09254 28.6665 2.27233C29.1005 2.45212 29.4949 2.71564 29.8271 3.04785C30.1594 3.38006 30.4229 3.77445 30.6027 4.20851C30.7825 4.64256 30.875 5.10778 30.875 5.57759C30.875 6.04741 30.7825 6.51263 30.6027 6.94668C30.4229 7.38073 30.1594 7.77512 29.8271 8.10733L8.74597 29.1885L2 30.875L3.68649 24.129L24.7677 3.04785Z" stroke="#3578FF" stroke-width="3.37299" stroke-linecap="round" stroke-linejoin="round"/>
</svg>
