<svg width="71" height="71" viewBox="0 0 71 71" fill="none" xmlns="http://www.w3.org/2000/svg">
<path d="M71 35.5C71 15.8939 55.1061 0 35.5 0C15.8939 0 0 15.8939 0 35.5C0 55.1061 15.8939 71 35.5 71C55.1061 71 71 55.1061 71 35.5Z" fill="#3578FF"/>
<path fill-rule="evenodd" clip-rule="evenodd" d="M52.8721 35.9031C52.8721 34.6445 52.7591 33.4343 52.5493 32.2725H35.832V39.1385H45.3848C44.9733 41.3573 43.7227 43.2371 41.8428 44.4958V48.9494H47.5793C50.9357 45.8593 52.8721 41.3088 52.8721 35.9031Z" fill="white"/>
<path fill-rule="evenodd" clip-rule="evenodd" d="M35.8308 53.2506C40.6233 53.2506 44.6413 51.6611 47.5781 48.9502L41.8416 44.4966C40.2522 45.5616 38.219 46.1909 35.8308 46.1909C31.2078 46.1909 27.2947 43.0685 25.8989 38.873H19.9688V43.4719C22.8894 49.273 28.8922 53.2506 35.8308 53.2506Z" fill="white"/>
<path fill-rule="evenodd" clip-rule="evenodd" d="M25.9001 38.8742C25.5451 37.8092 25.3434 36.6715 25.3434 35.5017C25.3434 34.3318 25.5451 33.1941 25.9001 32.1291V27.5303H19.97C18.7678 29.9265 18.082 32.6374 18.082 35.5017C18.082 38.3659 18.7678 41.0768 19.97 43.473L25.9001 38.8742Z" fill="white"/>
<path fill-rule="evenodd" clip-rule="evenodd" d="M35.8308 24.8097C38.4369 24.8097 40.7766 25.7052 42.6162 27.4641L47.7072 22.3731C44.6332 19.5089 40.6153 17.75 35.8308 17.75C28.8922 17.75 22.8894 21.7276 19.9688 27.5287L25.8989 32.1275C27.2947 27.9321 31.2078 24.8097 35.8308 24.8097Z" fill="white"/>
</svg>
