<svg width="77" height="54" viewBox="0 0 77 54" fill="none" xmlns="http://www.w3.org/2000/svg">
<path d="M0 8.42451V2.13421H24.9927V8.42451H16.3435V30.8899H8.64916V8.42451H0Z" fill="#3578FF"/>
<path d="M25.8036 30.8899V9.32312H33.3295V13.423H33.5541C33.9473 11.9066 34.5697 10.7974 35.4215 10.0954C36.2827 9.39333 37.289 9.0423 38.4403 9.0423C38.7773 9.0423 39.1096 9.07039 39.4372 9.12655C39.7742 9.17335 40.0971 9.24356 40.406 9.33716V15.9504C40.0223 15.8194 39.5496 15.7211 38.9879 15.6555C38.4263 15.59 37.9442 15.5573 37.5417 15.5573C36.7835 15.5573 36.1002 15.7304 35.4917 16.0768C34.8927 16.4137 34.42 16.8911 34.0736 17.5089C33.7273 18.1174 33.5541 18.8335 33.5541 19.6572V30.8899H25.8036Z" fill="#3578FF"/>
<path d="M42.9474 30.8899V9.32312H50.698V30.8899H42.9474ZM46.8227 7.07658C45.7743 7.07658 44.8757 6.73025 44.1269 6.03756C43.378 5.34488 43.0036 4.51179 43.0036 3.53829C43.0036 2.56479 43.378 1.7317 44.1269 1.03902C44.8757 0.34634 45.7743 0 46.8227 0C47.8805 0 48.7791 0.34634 49.5186 1.03902C50.2674 1.7317 50.6418 2.56479 50.6418 3.53829C50.6418 4.51179 50.2674 5.34488 49.5186 6.03756C48.7791 6.73025 47.8805 7.07658 46.8227 7.07658Z" fill="#3578FF"/>
<path d="M54.647 38.9774V9.32312H62.3414V13.0861H62.5098C62.7907 12.3559 63.2025 11.6867 63.7454 11.0782C64.2884 10.4604 64.9623 9.969 65.7673 9.60394C66.5723 9.22952 67.5084 9.0423 68.5755 9.0423C69.9983 9.0423 71.3509 9.42141 72.6333 10.1796C73.9251 10.9378 74.9734 12.1313 75.7784 13.76C76.5928 15.3888 77 17.5043 77 20.1065C77 22.5964 76.6115 24.6604 75.8346 26.2985C75.067 27.9366 74.0374 29.1582 72.7456 29.9632C71.4632 30.7682 70.0545 31.1707 68.5193 31.1707C67.5084 31.1707 66.6051 31.0069 65.8094 30.6792C65.0232 30.3423 64.3492 29.8883 63.7876 29.3173C63.2353 28.7369 62.8094 28.0817 62.5098 27.3516H62.3975V38.9774H54.647ZM62.229 20.1065C62.229 21.1549 62.3648 22.0628 62.6362 22.8304C62.917 23.5886 63.3102 24.1783 63.8156 24.5996C64.3305 25.0114 64.9436 25.2174 65.655 25.2174C66.3664 25.2174 66.9702 25.0161 67.4663 24.6136C67.9717 24.2017 68.3555 23.6167 68.6176 22.8585C68.8891 22.0909 69.0248 21.1736 69.0248 20.1065C69.0248 19.0394 68.8891 18.1267 68.6176 17.3685C68.3555 16.601 67.9717 16.0159 67.4663 15.6134C66.9702 15.2016 66.3664 14.9956 65.655 14.9956C64.9436 14.9956 64.3305 15.2016 63.8156 15.6134C63.3102 16.0159 62.917 16.601 62.6362 17.3685C62.3648 18.1267 62.229 19.0394 62.229 20.1065Z" fill="#3578FF"/>
<path d="M16.4521 43.2961V45.8796H9.8125V43.2961H16.4521ZM11.0784 53.2168V43.0119C11.0784 42.1938 11.2248 41.5156 11.5176 40.9774C11.8104 40.4391 12.2238 40.0365 12.7577 39.7696C13.2916 39.5026 13.9203 39.3691 14.6437 39.3691C15.0958 39.3691 15.535 39.4036 15.9613 39.4725C16.3919 39.5414 16.7105 39.6017 16.9172 39.6533L16.4005 42.211C16.2713 42.1723 16.1206 42.1421 15.9483 42.1206C15.7761 42.0947 15.6254 42.0818 15.4962 42.0818C15.1604 42.0818 14.9343 42.1529 14.8181 42.295C14.7018 42.4371 14.6437 42.6244 14.6437 42.8569V53.2168H11.0784Z" fill="white"/>
<path d="M22.3054 53.3976C21.2289 53.3976 20.3075 53.1845 19.5411 52.7582C18.7746 52.3276 18.1869 51.7291 17.7778 50.9627C17.3687 50.1919 17.1642 49.2985 17.1642 48.2823C17.1642 47.2661 17.3687 46.3748 17.7778 45.6083C18.1869 44.8376 18.7746 44.2391 19.5411 43.8128C20.3075 43.3822 21.2289 43.1669 22.3054 43.1669C23.3819 43.1669 24.3033 43.3822 25.0698 43.8128C25.8362 44.2391 26.424 44.8376 26.833 45.6083C27.2421 46.3748 27.4466 47.2661 27.4466 48.2823C27.4466 49.2985 27.2421 50.1919 26.833 50.9627C26.424 51.7291 25.8362 52.3276 25.0698 52.7582C24.3033 53.1845 23.3819 53.3976 22.3054 53.3976ZM22.3312 50.7624C22.6327 50.7624 22.8932 50.6613 23.1128 50.4589C23.3324 50.2565 23.5024 49.968 23.623 49.5934C23.7436 49.2188 23.8039 48.7731 23.8039 48.2564C23.8039 47.7354 23.7436 47.2898 23.623 46.9195C23.5024 46.5449 23.3324 46.2564 23.1128 46.054C22.8932 45.8516 22.6327 45.7504 22.3312 45.7504C22.0126 45.7504 21.7392 45.8516 21.511 46.054C21.2828 46.2564 21.1084 46.5449 20.9878 46.9195C20.8673 47.2898 20.807 47.7354 20.807 48.2564C20.807 48.7731 20.8673 49.2188 20.9878 49.5934C21.1084 49.968 21.2828 50.2565 21.511 50.4589C21.7392 50.6613 22.0126 50.7624 22.3312 50.7624Z" fill="white"/>
<path d="M28.8934 53.2168V43.2961H32.3553V45.1821H32.4586C32.6395 44.4845 32.9258 43.9743 33.3176 43.6513C33.7138 43.3284 34.1767 43.1669 34.7063 43.1669C34.8613 43.1669 35.0142 43.1798 35.1649 43.2057C35.3199 43.2272 35.4684 43.2595 35.6105 43.3025V46.3446C35.434 46.2844 35.2165 46.2391 34.9582 46.209C34.6998 46.1789 34.4781 46.1638 34.2929 46.1638C33.9442 46.1638 33.6298 46.2434 33.3499 46.4028C33.0744 46.5578 32.8569 46.7774 32.6976 47.0616C32.5383 47.3414 32.4586 47.6708 32.4586 48.0498V53.2168H28.8934Z" fill="white"/>
<path d="M40.4029 53.2168V43.2961H43.7873V45.1821H43.8907C44.0974 44.562 44.4505 44.0711 44.9499 43.7094C45.4494 43.3478 46.0436 43.1669 46.7326 43.1669C47.4301 43.1669 48.0308 43.3521 48.5346 43.7224C49.0383 44.0884 49.3419 44.5749 49.4452 45.1821H49.5486C49.7165 44.5749 50.0739 44.0884 50.6207 43.7224C51.1676 43.3521 51.8092 43.1669 52.5455 43.1669C53.4971 43.1669 54.2678 43.4726 54.8577 44.0841C55.4519 44.6955 55.749 45.5093 55.749 46.5255V53.2168H52.1838V47.4297C52.1838 46.9948 52.074 46.6547 51.8544 46.4092C51.6348 46.1595 51.3398 46.0346 50.9695 46.0346C50.6035 46.0346 50.3129 46.1595 50.0976 46.4092C49.8866 46.6547 49.7811 46.9948 49.7811 47.4297V53.2168H46.3709V47.4297C46.3709 46.9948 46.2611 46.6547 46.0415 46.4092C45.8219 46.1595 45.5269 46.0346 45.1566 46.0346C44.9112 46.0346 44.7002 46.0906 44.5237 46.2025C44.3471 46.3145 44.2093 46.476 44.1103 46.6869C44.0156 46.8936 43.9682 47.1412 43.9682 47.4297V53.2168H40.4029Z" fill="white"/>
<path d="M62.2611 53.3976C61.2019 53.3976 60.289 53.1953 59.5226 52.7905C58.7604 52.3814 58.1727 51.7959 57.7593 51.0337C57.3503 50.2673 57.1457 49.3501 57.1457 48.2823C57.1457 47.2575 57.3524 46.3619 57.7658 45.5954C58.1791 44.829 58.7626 44.2326 59.5161 43.8063C60.2696 43.38 61.1588 43.1669 62.1836 43.1669C62.9328 43.1669 63.611 43.2832 64.2181 43.5157C64.8252 43.7482 65.3441 44.0862 65.7747 44.5297C66.2053 44.9689 66.5368 45.5028 66.7693 46.1315C67.0019 46.7601 67.1181 47.4685 67.1181 48.2564V49.0832H58.2566V47.1197H63.837C63.8327 46.8355 63.7595 46.5858 63.6174 46.3705C63.4797 46.1509 63.2924 45.9808 63.0555 45.8602C62.823 45.7354 62.5582 45.6729 62.2611 45.6729C61.9726 45.6729 61.7078 45.7354 61.4667 45.8602C61.2255 45.9808 61.0318 46.1487 60.8854 46.364C60.7433 46.5793 60.6679 46.8312 60.6593 47.1197V49.2382C60.6593 49.5568 60.7261 49.841 60.8595 50.0907C60.993 50.3405 61.1846 50.5364 61.4344 50.6785C61.6841 50.8206 61.9855 50.8916 62.3386 50.8916C62.584 50.8916 62.8079 50.8572 63.0103 50.7883C63.217 50.7194 63.3935 50.6204 63.5399 50.4912C63.6863 50.3577 63.794 50.1984 63.8629 50.0132H67.1181C67.0062 50.7022 66.7413 51.3007 66.3237 51.8088C65.906 52.3126 65.3527 52.7044 64.6638 52.9843C63.9791 53.2598 63.1782 53.3976 62.2611 53.3976Z" fill="white"/>
</svg>
