<svg width="19" height="21" viewBox="0 0 19 21" fill="none" xmlns="http://www.w3.org/2000/svg">
<path d="M15.5792 1.6579C15.5794 1.23213 15.7434 0.822765 16.0372 0.514627C16.331 0.20649 16.7321 0.0231972 17.1574 0.00273705C17.5827 -0.0177231 17.9995 0.126211 18.3215 0.40472C18.6436 0.683228 18.8461 1.07496 18.8872 1.49874L18.8949 1.6579V19.3421C18.8947 19.7679 18.7307 20.1772 18.4369 20.4854C18.1431 20.7935 17.742 20.9768 17.3167 20.9973C16.8914 21.0177 16.4746 20.8738 16.1526 20.5953C15.8305 20.3168 15.628 19.925 15.5869 19.5013L15.5792 19.3421L15.5792 1.6579ZM7.84231 1.6579C7.84231 1.21819 8.01698 0.796503 8.3279 0.485588C8.63881 0.174673 9.0605 0 9.50021 0C9.93991 0 10.3616 0.174673 10.6725 0.485588C10.9834 0.796503 11.1581 1.21819 11.1581 1.6579L11.1581 19.3421C11.1581 19.7818 10.9834 20.2035 10.6725 20.5144C10.3616 20.8253 9.93991 21 9.50021 21C9.0605 21 8.63881 20.8253 8.3279 20.5144C8.01698 20.2035 7.84231 19.7818 7.84231 19.3421L7.84231 1.6579ZM0.105469 1.6579C0.105469 1.21819 0.280139 0.796503 0.591055 0.485588C0.901971 0.174673 1.32366 0 1.76336 0C2.20306 0 2.62476 0.174673 2.93567 0.485588C3.24659 0.796503 3.42126 1.21819 3.42126 1.6579L3.42126 19.3421C3.42126 19.7818 3.24659 20.2035 2.93567 20.5144C2.62476 20.8253 2.20306 21 1.76336 21C1.32366 21 0.901971 20.8253 0.591055 20.5144C0.280139 20.2035 0.105469 19.7818 0.105469 19.3421L0.105469 1.6579Z" fill="#3578FF"/>
</svg>
