<svg width="27" height="32" viewBox="0 0 27 32" fill="none" xmlns="http://www.w3.org/2000/svg">
<path d="M26.617 25.1383V26.617H0V25.1383L2.95745 22.1809V13.3085C2.95745 8.72447 5.95926 4.68755 10.3511 3.38628V2.95745C10.3511 2.17308 10.6627 1.42084 11.2173 0.866216C11.7719 0.311587 12.5241 0 13.3085 0C14.0929 0 14.8451 0.311587 15.3997 0.866216C15.9544 1.42084 16.266 2.17308 16.266 2.95745V3.38628C20.6578 4.68755 23.6596 8.72447 23.6596 13.3085V22.1809L26.617 25.1383ZM16.266 28.0957C16.266 28.8801 15.9544 29.6323 15.3997 30.187C14.8451 30.7416 14.0929 31.0532 13.3085 31.0532C12.5241 31.0532 11.7719 30.7416 11.2173 30.187C10.6627 29.6323 10.3511 28.8801 10.3511 28.0957" fill="white"/>
</svg>
