<svg width="19" height="20" viewBox="0 0 19 20" fill="none" xmlns="http://www.w3.org/2000/svg">
<path d="M13.9321 12.2604H13.0517L12.7396 11.9595C13.4361 11.1504 13.9451 10.1974 14.2303 9.16855C14.5154 8.13974 14.5696 7.06063 14.389 6.00843C13.8652 2.91029 11.2797 0.436236 8.1593 0.0573263C7.06226 -0.0814595 5.94801 0.0325542 4.90182 0.390643C3.85563 0.748731 2.90521 1.3414 2.12331 2.12331C1.3414 2.90521 0.748731 3.85563 0.390643 4.90182C0.0325542 5.94801 -0.0814594 7.06226 0.0573264 8.1593C0.436236 11.2797 2.91029 13.8652 6.00843 14.389C7.06063 14.5696 8.13974 14.5154 9.16855 14.2303C10.1974 13.9451 11.1504 13.4361 11.9595 12.7396L12.2604 13.0517V13.9321L16.9968 18.6685C17.4537 19.1254 18.2004 19.1254 18.6573 18.6685C19.1142 18.2115 19.1142 17.4649 18.6573 17.0079L13.9321 12.2604ZM7.24546 12.2604C4.4705 12.2604 2.23048 10.0204 2.23048 7.24546C2.23048 4.4705 4.4705 2.23048 7.24546 2.23048C10.0204 2.23048 12.2604 4.4705 12.2604 7.24546C12.2604 10.0204 10.0204 12.2604 7.24546 12.2604Z" fill="#3578FF"/>
</svg>
