<svg width="40" height="39" viewBox="0 0 40 39" fill="none" xmlns="http://www.w3.org/2000/svg">
<path d="M39.5874 14.527C39.3824 13.8996 38.9974 13.3461 38.4801 12.9355C37.9628 12.5248 37.336 12.275 36.6778 12.2171L27.0691 11.3871L23.3099 2.44021C23.0513 1.83178 22.6191 1.31282 22.0672 0.948013C21.5154 0.583201 20.8682 0.388672 20.2064 0.388672C19.5446 0.388672 18.8974 0.583201 18.3456 0.948013C17.7937 1.31282 17.3616 1.83178 17.103 2.44021L13.3387 11.3871L3.72999 12.2171C3.06815 12.2718 2.43723 12.5206 1.9164 12.9321C1.39557 13.3436 1.00803 13.8996 0.802405 14.5303C0.596777 15.161 0.582221 15.8382 0.760564 16.4772C0.938907 17.1161 1.30221 17.6881 1.80487 18.1216L9.1075 24.4858L6.91604 33.9545C6.76574 34.5993 6.80908 35.274 7.04063 35.8943C7.27218 36.5146 7.68166 37.053 8.21789 37.4421C8.75412 37.8313 9.39331 38.0539 10.0555 38.0822C10.7178 38.1105 11.3737 37.9433 11.9412 37.6013L20.2013 32.5908L28.4615 37.6013C29.029 37.9427 29.6847 38.1096 30.3466 38.081C31.0085 38.0524 31.6473 37.8297 32.1833 37.4407C32.7192 37.0516 33.1285 36.5135 33.36 35.8935C33.5915 35.2735 33.635 34.5991 33.485 33.9545L31.2935 24.4858L38.5961 18.1216C39.0975 17.6866 39.459 17.1133 39.6353 16.4739C39.8117 15.8344 39.795 15.1571 39.5874 14.527ZM28.335 21.7027C27.8727 22.1044 27.5288 22.6244 27.3402 23.2067C27.1516 23.789 27.1255 24.4117 27.2646 25.0077L29.1847 33.3114L21.9461 28.9205C21.4204 28.6008 20.8168 28.4317 20.2013 28.4317C19.5859 28.4317 18.9823 28.6008 18.4566 28.9205L11.218 33.3114L13.1381 25.0077C13.2772 24.4117 13.2511 23.789 13.0625 23.2067C12.8739 22.6244 12.53 22.1044 12.0677 21.7027L5.64667 16.108L14.099 15.3773C14.711 15.3249 15.297 15.1059 15.7931 14.744C16.2891 14.3822 16.6763 13.8913 16.9125 13.3249L20.2013 5.4977L23.4902 13.3249C23.7264 13.8913 24.1136 14.3822 24.6096 14.744C25.1057 15.1059 25.6917 15.3249 26.3037 15.3773L34.756 16.108L28.335 21.7027Z" fill="#3578FF"/>
</svg>
