<svg width="62" height="62" viewBox="0 0 62 62" fill="none" xmlns="http://www.w3.org/2000/svg">
<rect width="61.3333" height="61.3333" rx="30.6667" fill="#3578FF"/>
<path d="M32.174 41.4003C20.6486 41.4003 14.0747 33.3422 13.8008 19.9336H19.574C19.7636 29.7752 24.0198 33.9439 27.391 34.8034V19.9336H32.8271V28.4214C36.1562 28.0561 39.6539 24.1882 40.8338 19.9336H46.2699C45.8253 22.1402 44.939 24.2295 43.6664 26.0708C42.3939 27.9121 40.7625 29.4658 38.8743 30.6347C40.982 31.7028 42.8436 33.2146 44.3364 35.0703C45.8291 36.926 46.919 39.0834 47.5341 41.4003H41.5502C40.998 39.3879 39.8757 37.5866 38.324 36.2219C36.7722 34.8573 34.8601 33.9901 32.8271 33.729V41.4003H32.174Z" fill="white"/>
</svg>
