<svg width="62" height="62" viewBox="0 0 62 62" fill="none" xmlns="http://www.w3.org/2000/svg">
<rect x="0.667969" width="61.3333" height="61.3333" rx="30.6667" fill="#3578FF"/>
<path d="M43.4878 18.4956C40.4585 15.4769 36.4195 13.7998 32.1561 13.7998C23.2927 13.7998 16.1122 20.9554 16.1122 29.788C16.1122 32.5831 16.8976 35.3783 18.2439 37.7262L16 45.9998L24.5268 43.7637C26.8829 44.9936 29.4634 45.6644 32.1561 45.6644C41.0195 45.6644 48.2 38.5088 48.2 29.6762C48.0878 25.5394 46.5171 21.5144 43.4878 18.4956ZM39.8976 35.4901C39.561 36.3845 37.9902 37.279 37.2049 37.3908C36.5317 37.5026 35.6341 37.5026 34.7366 37.279C34.1756 37.0554 33.3902 36.8318 32.4927 36.3845C28.4537 34.7074 25.8732 30.6824 25.6488 30.347C25.4244 30.1234 23.9659 28.2227 23.9659 26.2102C23.9659 24.1977 24.9756 23.3033 25.3122 22.8561C25.6488 22.4088 26.0976 22.4088 26.4341 22.4088C26.6585 22.4088 26.9951 22.4088 27.2195 22.4088C27.4439 22.4088 27.7805 22.297 28.1171 23.0797C28.4537 23.8623 29.239 25.8748 29.3512 25.9866C29.4634 26.2102 29.4634 26.4338 29.3512 26.6574C29.239 26.8811 29.1268 27.1047 28.9024 27.3283C28.678 27.5519 28.4537 27.8873 28.3415 27.9991C28.1171 28.2227 27.8927 28.4463 28.1171 28.7817C28.3415 29.229 29.1268 30.4588 30.361 31.5769C31.9317 32.9186 33.1659 33.3658 33.6146 33.5894C34.0634 33.813 34.2878 33.7012 34.5122 33.4776C34.7366 33.254 35.522 32.3595 35.7463 31.9123C35.9707 31.4651 36.3073 31.5769 36.6439 31.6887C36.9805 31.8005 39 32.8068 39.3366 33.0304C39.7854 33.254 40.0098 33.3658 40.1219 33.4776C40.2341 33.813 40.2341 34.5956 39.8976 35.4901Z" fill="white"/>
</svg>
